<?xml version="1.0" encoding="utf-8"?>
<!-- Generator: Adobe Illustrator 24.2.3, SVG Export Plug-In . SVG Version: 6.00 Build 0)  -->
<svg version="1.1" xmlns="http://www.w3.org/2000/svg" xmlns:xlink="http://www.w3.org/1999/xlink" x="0px" y="0px"
	 viewBox="0 0 271.41 39.87" style="enable-background:new 0 0 271.41 39.87;" xml:space="preserve">
<style type="text/css">
	.st0{fill:#FFFFFF;}
	.st1{fill:none;}
	.st2{fill:#C69C6D;}
	.st3{display:none;}
</style>
<g id="圖層_1">
	<g>
		<g>
			<polygon class="st0" points="9.94,39.87 12.33,39.87 12.33,17.69 22.31,17.69 22.31,16.21 0,16.21 0,17.69 9.94,17.69 			"/>
			<polygon class="st0" points="120.83,37.71 119.4,37.71 110.83,16.21 108.38,16.21 118.29,39.83 121.79,39.83 131.66,16.21 
				129.34,16.21 			"/>
			<polygon class="st0" points="149.59,30.31 162.03,30.31 162.03,28.79 149.59,28.79 149.59,17.69 164.39,17.69 164.39,16.21 
				147.16,16.21 147.16,39.28 164.88,39.28 164.88,37.75 149.59,37.75 			"/>
			<polygon class="st0" points="184.92,16.21 182.49,16.21 182.49,39.28 199.24,39.28 199.24,37.75 184.92,37.75 			"/>
			<polygon class="st0" points="218.19,30.31 230.62,30.31 230.62,28.79 218.19,28.79 218.19,17.69 232.99,17.69 232.99,16.21 
				215.75,16.21 215.75,39.28 233.47,39.28 233.47,37.75 218.19,37.75 			"/>
			<path class="st0" d="M52.13,31.33c0.64-0.15,1.24-0.33,1.82-0.53c3.33-1.3,4.95-3.61,4.95-7.05c-0.02-5.03-3.49-7.5-10.59-7.55
				h-9.44v23.67h2.44v-8.13h7.29l7.97,8.13h2.64l-8.26-8.26L52.13,31.33z M47.71,30.38L47.71,30.38H41.3v-12.8h6.4
				c1.36,0,2.58,0.1,3.63,0.29c3.42,0.69,5.23,2.73,5.23,5.89C56.53,26.74,54.98,30.31,47.71,30.38z"/>
			<polygon class="st0" points="86.26,16.21 82.86,16.21 72.33,39.79 74.64,39.79 76.56,35.29 77.02,33.96 83.72,17.57 85.04,17.57 
				91.97,33.96 92.39,35.29 94.26,39.79 96.75,39.79 			"/>
			<path class="st0" d="M263.16,31.61l1.18-0.28c0.64-0.15,1.25-0.33,1.83-0.53c3.31-1.29,4.93-3.6,4.93-7.04
				c-0.02-5.03-3.49-7.5-10.59-7.55h-9.44v23.07h2.44v-7.53h7.29l7.97,7.53h2.64L263.16,31.61z M259.92,30.38L259.92,30.38h-6.41
				v-12.8h6.4c1.36,0,2.58,0.1,3.63,0.29c3.42,0.69,5.22,2.73,5.22,5.89C268.74,26.74,267.19,30.31,259.92,30.38z"/>
		</g>
		<circle class="st2" cx="84.92" cy="4.78" r="4.78"/>
	</g>
</g>
<g id="圖層_2" class="st3">
</g>
</svg>
